<svg width="32" height="32" viewBox="0 0 32 32" fill="none" xmlns="http://www.w3.org/2000/svg">
<path d="M6.66667 4C5.196 4 4 5.196 4 6.66667V25.3333C4 26.804 5.196 28 6.66667 28H15.4948H19.2188H25.3333C26.804 28 28 26.804 28 25.3333V6.66667C28 5.196 26.804 4 25.3333 4H6.66667ZM6.66667 7.26667C6.66667 6.9353 6.9353 6.66667 7.26667 6.66667H24.7334C25.0648 6.66667 25.3334 6.93525 25.3334 7.26658L25.3359 24.7333C25.3359 25.0647 25.0673 25.3333 24.7359 25.3333H19.8188C19.4874 25.3333 19.2188 25.0647 19.2188 24.7333V20.6469C19.2188 20.3155 19.4874 20.0469 19.8188 20.0469H21.8449C22.1465 20.0469 22.4013 19.8229 22.4399 19.5237L22.7538 17.0909C22.8001 16.732 22.5206 16.4141 22.1588 16.4141H19.8396C19.5082 16.4141 19.2396 16.1454 19.2396 15.8141V14.099C19.2396 13.0483 19.5324 12.3385 21.0391 12.3385H22.3427C22.6741 12.3385 22.9427 12.0699 22.9427 11.7385V9.63819C22.9427 9.33043 22.7099 9.07183 22.4032 9.04677C21.6551 8.98567 20.9049 8.95619 20.1536 8.95833C17.3883 8.95833 15.4948 10.6461 15.4948 13.7448V15.8193C15.4948 16.1506 15.2262 16.4193 14.8948 16.4193H12.9698C12.6384 16.4193 12.3698 16.6879 12.3698 17.0193V19.4521C12.3698 19.7835 12.6384 20.0521 12.9698 20.0521H14.8948C15.2262 20.0521 15.4948 20.3207 15.4948 20.6521V24.7333C15.4948 25.0647 15.2262 25.3333 14.8948 25.3333H7.26667C6.9353 25.3333 6.66667 25.0647 6.66667 24.7333V7.26667Z" fill="#4F3527"/>
</svg>
